<?xml version="1.0" standalone="no"?>
<!DOCTYPE svg PUBLIC "-//W3C//DTD SVG 20010904//EN"
 "http://www.w3.org/TR/2001/REC-SVG-20010904/DTD/svg10.dtd">
<svg version="1.0" xmlns="http://www.w3.org/2000/svg"
 width="512.000000pt" height="512.000000pt" viewBox="0 0 512.000000 512.000000"
 preserveAspectRatio="xMidYMid meet">
<metadata>
Created by potrace 1.14, written by Peter Selinger 2001-2017
</metadata>
<g transform="translate(0.000000,512.000000) scale(0.100000,-0.100000)"
fill="#000000" stroke="none">
<path d="M1145 4930 c-91 -20 -140 -101 -112 -185 5 -16 32 -53 58 -80 27 -28
49 -53 49 -55 0 -3 -55 -5 -122 -5 -68 0 -152 -3 -187 -8 -304 -40 -553 -262
-633 -567 -15 -59 -20 -111 -21 -251 -2 -201 6 -230 74 -268 47 -27 91 -27
140 1 63 35 72 68 74 253 2 175 13 234 62 317 60 102 171 188 283 219 43 11
306 21 323 12 4 -3 -14 -27 -40 -54 -26 -27 -53 -63 -59 -81 -39 -113 76 -222
190 -179 29 12 369 349 397 394 22 37 24 84 7 124 -11 24 -331 355 -380 391
-25 20 -70 29 -103 22z"/>
<path d="M3100 4684 c-14 -3 -52 -9 -85 -15 -33 -6 -71 -13 -85 -15 -75 -13
-299 -99 -352 -136 -14 -10 -29 -18 -32 -18 -6 0 -116 -70 -126 -80 -3 -3 -23
-18 -45 -34 -61 -45 -181 -164 -228 -226 -23 -30 -44 -57 -47 -60 -30 -28
-143 -235 -175 -320 -40 -107 -69 -213 -63 -231 3 -9 28 -14 74 -15 70 -3 151
-11 188 -19 12 -2 37 -7 56 -9 100 -15 303 -83 425 -143 313 -156 592 -432
749 -741 101 -200 170 -461 181 -682 2 -41 4 -78 4 -82 1 -7 96 17 187 48 91
30 253 112 346 176 94 64 260 220 314 293 16 22 31 42 34 45 18 16 95 148 130
220 338 701 39 1565 -660 1903 -128 61 -283 112 -405 132 -46 8 -347 14 -385
9z"/>
<path d="M1777 3294 c-1 -1 -36 -5 -77 -8 -215 -20 -462 -113 -654 -246 -263
-183 -463 -457 -555 -760 -18 -60 -24 -86 -50 -225 -10 -53 -8 -359 3 -410 3
-16 11 -52 16 -80 20 -100 74 -252 126 -353 210 -409 604 -695 1059 -768 100
-16 399 -10 490 10 201 44 347 103 500 202 112 72 127 85 245 204 116 117 185
211 258 351 43 82 95 215 90 229 -1 3 4 15 11 28 7 12 19 57 27 100 43 220 38
432 -13 637 -8 33 -16 68 -18 77 -7 36 -77 200 -110 259 -19 33 -35 63 -35 65
0 21 -146 202 -226 281 -62 60 -216 183 -230 183 -4 0 -15 6 -23 14 -28 25
-196 104 -287 135 -158 53 -271 72 -447 75 -54 1 -99 1 -100 0z m138 -621 c39
-11 74 -55 86 -108 11 -48 14 -52 41 -53 42 -1 111 -37 152 -80 96 -98 109
-253 26 -312 -81 -58 -194 -22 -221 71 -10 33 -16 39 -39 39 -41 0 -141 -19
-187 -37 -41 -15 -97 -63 -93 -80 10 -44 59 -68 225 -113 214 -57 342 -137
397 -248 32 -65 32 -204 0 -275 -25 -56 -121 -155 -172 -179 -19 -9 -55 -25
-79 -36 -44 -19 -45 -21 -47 -71 -3 -62 -32 -113 -78 -135 -94 -45 -206 23
-206 124 0 26 -4 30 -27 30 -16 0 -52 11 -82 25 -206 96 -222 394 -22 397 63
1 123 -45 139 -107 8 -27 11 -30 48 -27 164 12 279 69 260 129 -9 28 -92 65
-231 102 -314 84 -445 228 -404 441 27 137 140 252 300 303 12 4 17 18 17 53
2 58 23 106 60 132 41 30 75 33 137 15z"/>
<path d="M4728 1609 c-61 -37 -71 -70 -73 -254 -2 -175 -13 -233 -62 -317 -60
-102 -170 -187 -283 -219 -45 -12 -330 -21 -330 -10 0 3 23 28 50 56 69 68 82
123 46 193 -9 18 -28 39 -41 48 -38 25 -106 29 -144 10 -37 -20 -350 -329
-386 -382 -27 -40 -32 -87 -13 -131 14 -31 346 -369 391 -398 82 -52 202 13
211 114 4 50 -12 83 -70 141 -24 25 -44 48 -44 50 0 3 55 5 122 5 153 -1 232
9 327 40 240 79 426 281 493 534 28 107 31 408 5 461 -24 47 -58 70 -115 76
-37 4 -55 0 -84 -17z"/>
</g>
</svg>
